<svg xmlns="http://www.w3.org/2000/svg" width="84" height="78" fill="none" viewBox="0 0 84 78"><g fill="#0d96a0" opacity=".3"><path d="M75.222 65.943c-2.742 4.646-5.487 8.182-9.77 4.331-2.205-1.98-1.69-5.572-2.055-7.768-.44-2.634-1.43-3.838.045-5.937 1.437-2.049 4.872-1.382 7.712-1.393 3.013-.014 5.12-.845 7.375 1.808 2.006 2.36 1.346 4.63-3.307 8.96M52.066 53.097c2.38-2.408 12.026 2.767 6.912 6.627-3.806 2.87-9.278-4.092-6.912-6.627"/><path d="M53.993 62.665c2.232-2.54 12.079 2.16 7.218 6.306-3.622 3.081-9.771-3.793-7.218-6.306m2.383-15.11c-1.204 3.202 7.232 10.267 8.648 3.907 1.055-4.735-7.714-7.277-8.648-3.907M67.3 46.17c-2.334 2.45 2.501 10.787 7.072 6.461 3.441-3.26-4.957-9.072-7.072-6.46M29.281 28.04c-2.742 4.645-5.486 8.18-9.77 4.33-2.204-1.98-1.69-5.572-2.055-7.768-.44-2.634-1.43-3.838.046-5.937 1.437-2.049 4.872-1.382 7.712-1.393 3.013-.014 5.12-.845 7.374 1.808 2.006 2.36 1.347 4.63-3.307 8.96M6.126 15.193c2.379-2.408 12.026 2.767 6.912 6.627-3.807 2.87-9.278-4.093-6.912-6.627"/><path d="M8.053 24.761c2.231-2.54 12.078 2.16 7.217 6.306-3.622 3.081-9.77-3.793-7.217-6.306M10.436 9.65c-1.204 3.203 7.231 10.268 8.647 3.908 1.055-4.735-7.713-7.277-8.647-3.907M21.36 8.266c-2.335 2.45 2.5 10.787 7.071 6.461 3.442-3.26-4.956-9.072-7.071-6.46m37.22 20.496c-5.02 1.972-9.36 3.07-10.365-2.602-.518-2.918 2.1-5.431 3.164-7.387 1.275-2.346 1.236-3.905 3.69-4.65 2.395-.73 4.69 1.91 6.935 3.65 2.383 1.844 4.556 2.486 4.699 5.965.127 3.094-1.79 4.478-8.122 5.024M48.243 4.384c3.357-.432 7.773 9.584 1.366 9.478-4.766-.082-4.791-8.937-1.366-9.478"/><path d="M43.87 13.11c3.323-.628 8.189 9.139 1.806 9.413-4.751.198-5.365-9.004-1.806-9.412M55.051 2.67c-2.92 1.783-.623 12.543 4.409 8.403C63.207 7.991 57.862.59 55.05 2.67m9.461 5.635c-3.347.493-4.67 10.04 1.595 9.445 4.719-.45 1.68-10.2-1.595-9.445"/></g></svg>