<svg xmlns="http://www.w3.org/2000/svg" width="20" height="20" fill="none" viewBox="0 0 20 20"><path fill="#fff" d="M5.848 20A5.854 5.854 0 0 1 0 14.152V5.848A5.854 5.854 0 0 1 5.848 0h8.304A5.854 5.854 0 0 1 20 5.848v8.304A5.854 5.854 0 0 1 14.152 20zM1.864 5.848v8.304a3.99 3.99 0 0 0 3.984 3.984h8.304a3.99 3.99 0 0 0 3.983-3.984V5.848a3.99 3.99 0 0 0-3.983-3.984H5.848a3.99 3.99 0 0 0-3.984 3.984M4.83 10c0-2.85 2.32-5.17 5.17-5.17s5.17 2.32 5.17 5.17-2.32 5.17-5.17 5.17S4.83 12.85 4.83 10m1.865 0A3.31 3.31 0 0 0 10 13.305 3.31 3.31 0 0 0 13.305 10 3.31 3.31 0 0 0 10 6.695 3.31 3.31 0 0 0 6.695 10m7.403-5.334a1.246 1.246 0 1 1 2.492 0 1.246 1.246 0 0 1-2.492 0"/></svg>