<svg width="22" height="15" viewBox="0 0 22 15" fill="none" xmlns="http://www.w3.org/2000/svg">
<path d="M11.0004 15C10.9316 15 4.10075 14.9949 2.40496 14.5525C1.45791 14.3062 0.712441 13.5803 0.459448 12.6582C0.00525153 11.0057 0 7.53487 0 7.5C0 7.46513 0.00525153 3.99426 0.459448 2.3425C0.712148 1.42074 1.45762 0.694629 2.40496 0.447516C4.10075 0.00511515 10.9316 0 11.0004 0C11.0692 0 17.8992 0.00511515 19.595 0.447516C20.5424 0.694629 21.2878 1.42074 21.5406 2.3425C21.9947 3.99426 22 7.46513 22 7.5C22 7.53487 21.9947 11.0057 21.5406 12.6582C21.2876 13.5803 20.5421 14.3062 19.595 14.5525C17.8992 14.9949 11.0692 15 11.0004 15ZM8.79985 4.28602V10.7147L14.5155 7.5L8.79985 4.28602Z" fill="white"/>
</svg>
