<svg xmlns="http://www.w3.org/2000/svg" width="22" height="18" fill="none" viewBox="0 0 22 18"><path fill="#fff" d="M6.919 18C15.22 18 19.76 11.076 19.76 5.071q0-.295-.013-.587A9.2 9.2 0 0 0 22 2.13a9 9 0 0 1-2.592.715A4.55 4.55 0 0 0 21.393.333a9 9 0 0 1-2.866 1.103A4.5 4.5 0 0 0 15.232 0c-2.493 0-4.514 2.035-4.514 4.544q0 .535.117 1.036C7.084 5.39 3.757 3.582 1.53.832a4.55 4.55 0 0 0-.61 2.284c0 1.577.797 2.968 2.008 3.783A4.46 4.46 0 0 1 .884 6.33v.058c0 2.2 1.555 4.038 3.62 4.455a4.5 4.5 0 0 1-2.038.078 4.52 4.52 0 0 0 4.217 3.156 9.02 9.02 0 0 1-5.606 1.945q-.547 0-1.077-.063A12.7 12.7 0 0 0 6.919 18"/></svg>